<svg xmlns="http://www.w3.org/2000/svg" xmlns:xlink="http://www.w3.org/1999/xlink" width="500" zoomAndPan="magnify" viewBox="0 0 375 374.999991" height="500" preserveAspectRatio="xMidYMid meet" version="1.0"><defs><g/><clipPath id="cfbd0d4557"><path d="M 187 113.308594 L 191 113.308594 L 191 127 L 187 127 Z M 187 113.308594 " clip-rule="nonzero"/></clipPath></defs><rect x="-37.5" width="450" fill="#ffffff" y="-37.499999" height="449.999989" fill-opacity="1"/><rect x="-37.5" width="450" fill="#ffffff" y="-37.499999" height="449.999989" fill-opacity="1"/><path fill="#ffffff" d="M 125.824219 186.59375 L 116.203125 186.59375 C 113.996094 186.59375 113.996094 190.019531 116.203125 190.019531 L 125.824219 190.019531 C 128.03125 190.019531 128.03125 186.59375 125.824219 186.59375 Z M 125.824219 186.59375 " fill-opacity="1" fill-rule="nonzero"/><path fill="#ffffff" d="M 135.402344 155.207031 L 126.804688 150.429688 C 124.875 149.359375 123.148438 152.316406 125.078125 153.386719 L 133.675781 158.164062 C 135.605469 159.238281 137.332031 156.28125 135.402344 155.207031 Z M 135.402344 155.207031 " fill-opacity="1" fill-rule="nonzero"/><path fill="#ffffff" d="M 158.757812 132.679688 L 154.078125 124.390625 C 152.992188 122.464844 150.035156 124.191406 151.121094 126.117188 L 155.800781 134.40625 C 156.886719 136.328125 159.84375 134.605469 158.757812 132.679688 Z M 158.757812 132.679688 " fill-opacity="1" fill-rule="nonzero"/><g clip-path="url(#cfbd0d4557)"><path fill="#ffffff" d="M 190.707031 125.15625 L 190.707031 115.515625 C 190.707031 113.304688 187.285156 113.304688 187.285156 115.515625 L 187.285156 125.15625 C 187.285156 127.363281 190.707031 127.363281 190.707031 125.15625 Z M 190.707031 125.15625 " fill-opacity="1" fill-rule="nonzero"/></g><path fill="#ffffff" d="M 222.25 134.679688 L 226.871094 126.117188 C 227.917969 124.175781 224.960938 122.445312 223.914062 124.390625 L 219.292969 132.953125 C 218.246094 134.894531 221.199219 136.621094 222.25 134.679688 Z M 222.25 134.679688 " fill-opacity="1" fill-rule="nonzero"/><path fill="#ffffff" d="M 244.4375 158.4375 L 252.910156 153.386719 C 254.804688 152.257812 253.082031 149.296875 251.183594 150.429688 L 242.707031 155.480469 C 240.8125 156.609375 242.535156 159.570312 244.4375 158.4375 Z M 244.4375 158.4375 " fill-opacity="1" fill-rule="nonzero"/><path fill="#ffffff" d="M 251.996094 190.019531 L 261.789062 190.019531 C 263.996094 190.019531 263.996094 186.59375 261.789062 186.59375 L 251.996094 186.59375 C 249.789062 186.59375 249.789062 190.019531 251.996094 190.019531 Z M 251.996094 190.019531 " fill-opacity="1" fill-rule="nonzero"/><path fill="#ffffff" d="M 189.390625 183.9375 L 189.148438 183.9375 C 186.816406 183.9375 184.871094 185.882812 184.871094 188.21875 C 184.871094 190.550781 186.816406 192.496094 189.148438 192.496094 L 189.390625 192.496094 C 191.722656 192.496094 193.671875 190.550781 193.671875 188.21875 C 193.671875 185.882812 191.722656 183.9375 189.390625 183.9375 Z M 189.390625 183.9375 " fill-opacity="1" fill-rule="nonzero"/><path fill="#ffffff" d="M 189.976562 188.472656 L 189.976562 150.015625 C 189.976562 148.910156 188.265625 148.910156 188.265625 150.015625 L 188.265625 188.472656 C 188.265625 189.574219 189.976562 189.574219 189.976562 188.472656 Z M 189.976562 188.472656 " fill-opacity="1" fill-rule="nonzero"/><path fill="#ffffff" d="M 189.585938 187.785156 L 164.226562 143.90625 L 162.199219 140.398438 C 161.648438 139.441406 160.167969 140.304688 160.722656 141.261719 L 186.078125 185.140625 L 188.105469 188.648438 C 188.660156 189.605469 190.136719 188.742188 189.585938 187.785156 Z M 189.585938 187.785156 " fill-opacity="1" fill-rule="nonzero"/><g fill="#ffffff" fill-opacity="1"><g transform="translate(86.918429, 234.33643)"><g><path d="M 31.109375 -12.835938 C 29.414062 -5.28125 25.25 -0.386719 18.503906 -0.386719 C 10.253906 -0.386719 6.476562 -7.632812 6.476562 -16.039062 C 6.476562 -24.289062 10.757812 -30.996094 17.503906 -30.996094 C 22.398438 -30.996094 25.058594 -27.0625 26.253906 -22.167969 L 30.109375 -23.207031 C 27.488281 -28.488281 23.476562 -31.613281 17.503906 -31.613281 C 9.019531 -31.613281 2.3125 -25.175781 2.3125 -15.804688 C 2.3125 -6.4375 7.941406 0.769531 17.542969 0.769531 C 25.484375 0.769531 29.878906 -4.625 31.652344 -12.835938 Z M 31.109375 -12.835938 "/></g></g></g><g fill="#ffffff" fill-opacity="1"><g transform="translate(120.107767, 234.33643)"><g><path d="M 22.359375 -4.125 L 14.84375 -30.839844 L 10.292969 -30.839844 C 10.5625 -29.992188 10.5625 -29.570312 10.371094 -28.757812 L 3.316406 -3.894531 C 2.890625 -2.46875 2.777344 -1.695312 1.925781 0 L 3.046875 0 C 3.199219 -1.65625 3.507812 -2.46875 3.933594 -3.933594 L 6.015625 -11.21875 L 16.347656 -11.21875 L 18.351562 -4.125 C 18.8125 -2.46875 19.082031 -1.734375 19.160156 0 L 23.980469 0 C 23.207031 -1.503906 22.859375 -2.351562 22.359375 -4.125 Z M 6.167969 -11.835938 L 11.179688 -29.53125 L 16.191406 -11.835938 Z M 6.167969 -11.835938 "/></g></g></g><g fill="#ffffff" fill-opacity="1"><g transform="translate(146.011641, 234.33643)"><g><path d="M 20.546875 -7.324219 C 18.699219 -11.949219 15.882812 -13.722656 12.53125 -14.339844 C 18.195312 -14.765625 22.667969 -16.730469 22.667969 -22.554688 C 22.667969 -29.261719 16.691406 -30.839844 9.832031 -30.839844 L 2.699219 -30.839844 C 2.929688 -27.601562 3.007812 -26.0625 3.007812 -23.246094 L 3.007812 -7.59375 C 3.007812 -4.78125 2.929688 -3.238281 2.699219 0 L 7.09375 0 C 6.863281 -3.238281 6.785156 -4.78125 6.785156 -7.59375 L 6.785156 -14.265625 L 8.171875 -14.265625 C 12.144531 -14.265625 14.535156 -13.109375 16.691406 -7.054688 C 18.582031 -1.65625 21.472656 0 27.835938 0 L 27.835938 -0.578125 C 24.25 -0.578125 22.515625 -2.160156 20.546875 -7.324219 Z M 6.785156 -14.882812 L 6.785156 -30.222656 L 9.792969 -30.222656 C 14.300781 -30.222656 18.734375 -28.683594 18.734375 -22.554688 C 18.734375 -16.421875 14.300781 -14.882812 9.792969 -14.882812 Z M 6.785156 -14.882812 "/></g></g></g><g fill="#ffffff" fill-opacity="1"><g transform="translate(175.26914, 234.33643)"><g><path d="M 24.828125 -30.839844 L 0.769531 -30.839844 L 2.46875 -28.683594 C 5.78125 -29.992188 8.75 -30.222656 10.449219 -30.222656 L 10.910156 -30.222656 L 10.910156 -7.59375 C 10.910156 -4.78125 10.832031 -3.238281 10.601562 0 L 14.996094 0 C 14.765625 -3.238281 14.6875 -4.78125 14.6875 -7.59375 L 14.6875 -30.222656 L 15.152344 -30.222656 C 16.847656 -30.222656 19.816406 -29.992188 23.132812 -28.683594 Z M 24.828125 -30.839844 "/></g></g></g><g fill="#ffffff" fill-opacity="1"><g transform="translate(200.864641, 234.33643)"><g><path d="M 2.777344 -30.839844 C 3.007812 -27.601562 3.085938 -26.0625 3.085938 -23.246094 L 3.085938 -7.59375 C 3.085938 -4.78125 3.007812 -3.238281 2.699219 0 L 19.738281 0 L 20.855469 -2.082031 C 16.539062 -0.808594 13.917969 -0.617188 10.101562 -0.617188 L 6.863281 -0.617188 L 6.863281 -23.246094 C 6.863281 -26.0625 6.9375 -27.601562 7.171875 -30.839844 Z M 2.777344 -30.839844 "/></g></g></g><g fill="#ffffff" fill-opacity="1"><g transform="translate(223.260705, 234.33643)"><g><path d="M 19.546875 0.769531 C 29.414062 0.769531 36.816406 -5.9375 36.816406 -15.421875 C 36.816406 -24.867188 29.414062 -31.613281 19.546875 -31.613281 C 9.675781 -31.613281 2.3125 -24.867188 2.3125 -15.421875 C 2.3125 -5.9375 9.675781 0.769531 19.546875 0.769531 Z M 19.546875 0.152344 C 11.371094 0.152344 6.476562 -7.285156 6.476562 -15.421875 C 6.476562 -23.515625 11.371094 -30.996094 19.546875 -30.996094 C 27.71875 -30.996094 32.652344 -23.515625 32.652344 -15.421875 C 32.652344 -7.285156 27.71875 0.152344 19.546875 0.152344 Z M 19.546875 0.152344 "/></g></g></g><g fill="#ffffff" fill-opacity="1"><g transform="translate(262.386346, 234.33643)"><g><path d="M 25.675781 -23.246094 C 25.675781 -26.0625 25.753906 -27.601562 25.984375 -30.839844 L 24.828125 -30.839844 C 25.097656 -27.601562 25.136719 -26.0625 25.136719 -23.246094 L 25.136719 -1.503906 L 7.054688 -30.839844 L 2.699219 -30.839844 C 2.929688 -27.601562 3.007812 -26.0625 3.007812 -23.246094 L 3.007812 -7.59375 C 3.007812 -4.78125 2.929688 -3.238281 2.699219 0 L 3.855469 0 C 3.625 -3.238281 3.546875 -4.78125 3.546875 -7.59375 L 3.546875 -29.335938 L 21.628906 0 L 25.984375 0 C 25.753906 -3.238281 25.675781 -4.78125 25.675781 -7.59375 Z M 25.675781 -23.246094 "/></g></g></g><g fill="#ffffff" fill-opacity="1"><g transform="translate(126.070637, 256.86992)"><g><path d="M 0.496094 -3.007812 C 1.1875 -0.558594 2.585938 0.246094 4.207031 0.246094 C 5.628906 0.246094 6.832031 -0.53125 6.832031 -2.140625 C 6.832031 -3.578125 5.765625 -4.320312 3.8125 -5.878906 C 2.414062 -6.96875 1.585938 -7.4375 1.585938 -8.515625 C 1.585938 -9.40625 2.253906 -10 3.367188 -10 C 4.9375 -10 5.59375 -8.8125 5.742188 -7.699219 L 6.460938 -7.921875 C 5.753906 -9.355469 4.777344 -10.148438 3.390625 -10.148438 C 2.042969 -10.148438 1.136719 -9.46875 1.136719 -8.277344 C 1.136719 -7.117188 1.84375 -6.621094 3.464844 -5.332031 C 5.234375 -3.921875 6.386719 -3.144531 6.386719 -1.980469 C 6.386719 -0.558594 5.433594 0.0976562 4.230469 0.0976562 C 2.609375 0.0976562 1.347656 -1.273438 1.210938 -3.28125 Z M 0.496094 -3.007812 "/></g></g></g><g fill="#ffffff" fill-opacity="1"><g transform="translate(136.614033, 256.86992)"><g><path d="M 10.703125 -8.710938 C 10.839844 -9.171875 10.867188 -9.394531 11.113281 -9.898438 L 10.816406 -9.898438 C 10.777344 -9.394531 10.667969 -9.171875 10.53125 -8.699219 L 8.144531 -0.410156 L 6.261719 -7.027344 L 6.746094 -8.710938 C 6.878906 -9.171875 6.917969 -9.394531 7.164062 -9.898438 L 6.867188 -9.898438 C 6.832031 -9.394531 6.71875 -9.171875 6.582031 -8.699219 L 6.175781 -7.300781 L 5.792969 -8.664062 C 5.644531 -9.171875 5.570312 -9.394531 5.53125 -9.898438 L 4.566406 -9.898438 C 4.8125 -9.417969 4.902344 -9.183594 5.050781 -8.664062 L 5.804688 -6.003906 L 4.195312 -0.410156 L 1.832031 -8.664062 C 1.695312 -9.171875 1.621094 -9.394531 1.585938 -9.898438 L 0.617188 -9.898438 C 0.867188 -9.417969 0.953125 -9.183594 1.089844 -8.664062 L 3.5625 0 L 4.429688 0 C 4.355469 -0.210938 4.34375 -0.347656 4.394531 -0.542969 L 5.878906 -5.730469 L 7.511719 0 L 8.390625 0 C 8.304688 -0.210938 8.304688 -0.347656 8.351562 -0.542969 Z M 10.703125 -8.710938 "/></g></g></g><g fill="#ffffff" fill-opacity="1"><g transform="translate(151.66134, 256.86992)"><g><path d="M 0.867188 -9.898438 C 0.941406 -8.800781 0.941406 -8.339844 0.941406 -7.585938 L 0.941406 -2.328125 C 0.941406 -1.558594 0.941406 -1.101562 0.867188 0 L 1.71875 0 C 1.660156 -1.101562 1.644531 -1.558594 1.644531 -2.328125 L 1.644531 -7.585938 C 1.644531 -8.339844 1.660156 -8.800781 1.71875 -9.898438 Z M 0.867188 -9.898438 "/></g></g></g><g fill="#ffffff" fill-opacity="1"><g transform="translate(157.465728, 256.86992)"><g><path d="M 0.496094 -3.007812 C 1.1875 -0.558594 2.585938 0.246094 4.207031 0.246094 C 5.628906 0.246094 6.832031 -0.53125 6.832031 -2.140625 C 6.832031 -3.578125 5.765625 -4.320312 3.8125 -5.878906 C 2.414062 -6.96875 1.585938 -7.4375 1.585938 -8.515625 C 1.585938 -9.40625 2.253906 -10 3.367188 -10 C 4.9375 -10 5.59375 -8.8125 5.742188 -7.699219 L 6.460938 -7.921875 C 5.753906 -9.355469 4.777344 -10.148438 3.390625 -10.148438 C 2.042969 -10.148438 1.136719 -9.46875 1.136719 -8.277344 C 1.136719 -7.117188 1.84375 -6.621094 3.464844 -5.332031 C 5.234375 -3.921875 6.386719 -3.144531 6.386719 -1.980469 C 6.386719 -0.558594 5.433594 0.0976562 4.230469 0.0976562 C 2.609375 0.0976562 1.347656 -1.273438 1.210938 -3.28125 Z M 0.496094 -3.007812 "/></g></g></g><g fill="#ffffff" fill-opacity="1"><g transform="translate(168.009125, 256.86992)"><g><path d="M 0.496094 -3.007812 C 1.1875 -0.558594 2.585938 0.246094 4.207031 0.246094 C 5.628906 0.246094 6.832031 -0.53125 6.832031 -2.140625 C 6.832031 -3.578125 5.765625 -4.320312 3.8125 -5.878906 C 2.414062 -6.96875 1.585938 -7.4375 1.585938 -8.515625 C 1.585938 -9.40625 2.253906 -10 3.367188 -10 C 4.9375 -10 5.59375 -8.8125 5.742188 -7.699219 L 6.460938 -7.921875 C 5.753906 -9.355469 4.777344 -10.148438 3.390625 -10.148438 C 2.042969 -10.148438 1.136719 -9.46875 1.136719 -8.277344 C 1.136719 -7.117188 1.84375 -6.621094 3.464844 -5.332031 C 5.234375 -3.921875 6.386719 -3.144531 6.386719 -1.980469 C 6.386719 -0.558594 5.433594 0.0976562 4.230469 0.0976562 C 2.609375 0.0976562 1.347656 -1.273438 1.210938 -3.28125 Z M 0.496094 -3.007812 "/></g></g></g><g fill="#ffffff" fill-opacity="1"><g transform="translate(178.552521, 256.86992)"><g/></g></g><g fill="#ffffff" fill-opacity="1"><g transform="translate(185.272542, 256.86992)"><g><path d="M 0.890625 -9.898438 C 0.964844 -8.800781 0.964844 -8.339844 0.964844 -7.585938 L 0.964844 -2.328125 C 0.964844 -1.558594 0.953125 -1.101562 0.867188 0 L 5.828125 0 L 6.125 -0.507812 C 4.902344 -0.210938 3.984375 -0.160156 2.796875 -0.160156 L 1.671875 -0.160156 L 1.671875 -7.585938 C 1.671875 -8.339844 1.683594 -8.800781 1.746094 -9.898438 Z M 0.890625 -9.898438 "/></g></g></g><g fill="#ffffff" fill-opacity="1"><g transform="translate(195.110658, 256.86992)"><g><path d="M 0.867188 -9.898438 C 0.953125 -8.800781 0.964844 -8.339844 0.964844 -7.585938 L 0.964844 -2.328125 C 0.964844 -1.558594 0.953125 -1.101562 0.867188 0 L 6.261719 0 L 6.546875 -0.507812 C 5.332031 -0.210938 4.417969 -0.160156 3.230469 -0.160156 L 1.671875 -0.160156 L 1.671875 -5.199219 L 2.550781 -5.199219 C 3.207031 -5.199219 3.875 -5.199219 5.023438 -5.074219 L 5.023438 -5.46875 C 3.875 -5.347656 3.207031 -5.347656 2.550781 -5.347656 L 1.671875 -5.347656 L 1.671875 -9.75 L 2.832031 -9.75 C 3.316406 -9.75 4.652344 -9.691406 5.730469 -9.394531 L 6.175781 -9.898438 Z M 0.867188 -9.898438 "/></g></g></g><g fill="#ffffff" fill-opacity="1"><g transform="translate(205.245729, 256.86992)"><g><path d="M 10.507812 -4.863281 L 10.507812 -5.011719 L 5.542969 -5.011719 L 5.988281 -4.503906 C 7.066406 -4.8125 8.414062 -4.863281 8.886719 -4.863281 L 9.269531 -4.863281 C 9.144531 -1.84375 7.796875 -0.0390625 5.480469 -0.0390625 C 2.921875 -0.0390625 1.535156 -2.386719 1.535156 -5.109375 C 1.535156 -7.796875 3.105469 -10 5.457031 -10 C 7.140625 -10 8.070312 -8.773438 8.5 -7.386719 L 9.320312 -7.597656 C 8.5 -9.21875 7.277344 -10.148438 5.457031 -10.148438 C 2.785156 -10.148438 0.742188 -7.996094 0.742188 -5.074219 C 0.742188 -2.140625 2.511719 0.246094 5.332031 0.246094 C 7.511719 0.246094 8.835938 -1.152344 9.269531 -3.527344 L 9.269531 -2.722656 C 9.269531 -1.917969 9.257812 -1.210938 9.132812 0 L 9.578125 0 C 9.453125 -1.210938 9.453125 -1.917969 9.453125 -2.722656 L 9.453125 -4.863281 Z M 10.507812 -4.863281 "/></g></g></g><g fill="#ffffff" fill-opacity="1"><g transform="translate(219.216544, 256.86992)"><g><path d="M 6.695312 -1.238281 L 4.21875 -9.898438 L 3.355469 -9.898438 C 3.429688 -9.691406 3.441406 -9.566406 3.390625 -9.355469 L 1.039062 -1.1875 C 0.902344 -0.730469 0.867188 -0.507812 0.617188 0 L 0.914062 0 C 0.953125 -0.507812 1.0625 -0.730469 1.199219 -1.199219 L 1.90625 -3.652344 L 5.257812 -3.652344 L 5.953125 -1.238281 C 6.089844 -0.730469 6.164062 -0.519531 6.199219 0 L 7.164062 0 C 6.929688 -0.484375 6.832031 -0.71875 6.695312 -1.238281 Z M 1.941406 -3.800781 L 3.589844 -9.492188 L 5.222656 -3.800781 Z M 1.941406 -3.800781 "/></g></g></g><g fill="#ffffff" fill-opacity="1"><g transform="translate(230.217755, 256.86992)"><g><path d="M 9.703125 -4.070312 C 9.183594 -1.671875 7.871094 0.0117188 5.582031 0.0117188 C 2.808594 0.0117188 1.535156 -2.386719 1.535156 -5.109375 C 1.535156 -7.796875 3.105469 -10 5.457031 -10 C 7.117188 -10 8.054688 -8.773438 8.488281 -7.351562 L 9.304688 -7.574219 C 8.488281 -9.21875 7.253906 -10.148438 5.457031 -10.148438 C 2.785156 -10.148438 0.742188 -7.996094 0.742188 -5.074219 C 0.742188 -2.140625 2.414062 0.246094 5.445312 0.246094 C 7.945312 0.246094 9.320312 -1.511719 9.851562 -4.070312 Z M 9.703125 -4.070312 "/></g></g></g><g fill="#ffffff" fill-opacity="1"><g transform="translate(243.780249, 256.86992)"><g><path d="M 6.832031 -8.75 C 7.078125 -9.195312 7.191406 -9.417969 7.511719 -9.898438 L 7.238281 -9.898438 C 7.027344 -9.417969 6.917969 -9.21875 6.65625 -8.738281 L 4.429688 -4.617188 L 2.191406 -8.738281 C 1.941406 -9.195312 1.792969 -9.417969 1.644531 -9.898438 L 0.617188 -9.898438 C 0.976562 -9.429688 1.136719 -9.207031 1.386719 -8.738281 L 3.761719 -4.34375 L 3.761719 -2.328125 C 3.761719 -1.558594 3.761719 -1.101562 3.6875 0 L 4.542969 0 C 4.480469 -1.101562 4.46875 -1.558594 4.46875 -2.328125 L 4.46875 -4.34375 Z M 6.832031 -8.75 "/></g></g></g></svg>